# xmcd
#
# Track frame offsets:
# 150
# 15205
# 30084
# 44747
# 58068
# 73953
# 93981
# 108683
# 125595
# 140200
# 157202
# 174385
# 185267
# 204797
# 222324
# 231184
# 244082
# 263952
# 275204
# 290419
# 307975
#
# Disc length: 4309 seconds
#
# Revision: 1
# Processed by: cddbd v1.5.2PL0 Copyright (c) Steve Scherf et al.
# Submitted via: CedeCatalogueitor 2.6.0.6 http://personales.ya.com/cdcatalogueitor
#
DISCID=3f10d315
DTITLE=Varios Artistas - Somos Los Mods!
DYEAR=1900
DGENRE=
TTITLE0=Chicos Del Sábado - Ni Un Paso Atrás
TTITLE1=The Canary Sect - Daddy Rolling Stones
TTITLE2=Chest - What's Wrong With Modern Youth?
TTITLE3=Dehra Dun - Jardin
TTITLE4=Bombones - Mary Jane
TTITLE5=Blow Up - Lo Que Te Hace Sentir Bien
TTITLE6=Octubre - Todo Es Mentira
TTITLE7=Peter Colours - Flower Power
TTITLE8=Los Retrovisores - Dieciseis
TTITLE9=Los Glosters - Divina
TTITLE10=Mittens - A Fix Of Sun
TTITLE11=Fortune Tellers - Donde Irás
TTITLE12=Los Imposibles - Seven Ways To Love You
TTITLE13=Los Smogs - Get Away
TTITLE14=The Gurus - Flaps and Jobs
TTITLE15=Slim Mojo - That's How Strong My Love Is
TTITLE16=The Shake - Hard To Explain
TTITLE17=Slim Mojo - That's How...
TTITLE18=The Shake - Hard To Explain
TTITLE19=Cool Frog - Alice
TTITLE20=Second Comming - No Somos Culpables
EXTD=
EXTT0=
EXTT1=
EXTT2=
EXTT3=
EXTT4=
EXTT5=
EXTT6=
EXTT7=
EXTT8=
EXTT9=
EXTT10=
EXTT11=
EXTT12=
EXTT13=
EXTT14=
EXTT15=
EXTT16=
EXTT17=
EXTT18=
EXTT19=
EXTT20=
PLAYORDER=
